<svg width="362" height="117" viewBox="0 0 362 117" fill="none" xmlns="http://www.w3.org/2000/svg">
<path d="M174.035 0.323237C174.035 1.32324 180.335 7.52323 181.335 7.52323C182.835 7.52323 181.935 5.22323 179.835 3.42323C176.635 0.723227 174.035 -0.676763 174.035 0.323237ZM165.635 3.22323C166.035 4.82323 166.635 6.72323 167.135 7.52323C168.435 10.1232 169.435 5.82323 168.235 2.92323C166.635 -0.376773 164.835 -0.17677 165.635 3.22323ZM188.135 5.22323C187.535 7.22323 187.335 9.12323 187.635 9.42323C188.535 10.4232 191.035 6.32324 191.035 3.82324C191.035 0.223237 189.235 1.12323 188.135 5.22323ZM160.335 6.02323C160.035 7.02323 160.335 8.12324 161.135 8.62324C163.335 10.0232 163.935 9.72323 163.335 7.52323C162.635 4.72323 161.135 4.02323 160.335 6.02323ZM197.035 5.22323C197.035 7.52323 200.535 14.5232 201.635 14.5232C203.535 14.5232 203.435 13.6232 201.035 8.72323C199.235 5.02323 197.035 3.12323 197.035 5.22323ZM147.335 9.72323C148.035 11.5232 149.535 13.2232 150.535 13.4232C152.235 13.7232 152.235 13.6232 150.435 10.4232C147.735 5.82323 145.535 5.22323 147.335 9.72323ZM137.035 9.12324C137.035 10.5232 142.635 17.5232 143.835 17.5232C145.335 17.5232 144.935 16.6232 141.235 11.7232C139.035 8.82323 137.035 7.52324 137.035 9.12324ZM209.335 13.6232C207.735 14.2232 207.035 15.2232 207.035 17.2232V19.9232L208.635 17.7232C209.535 16.4232 211.135 15.0232 212.335 14.6232C213.835 14.0232 214.035 13.7232 212.935 13.3232C212.135 13.0232 210.535 13.1232 209.335 13.6232ZM211.935 20.5232C209.335 23.4232 208.835 24.5232 210.035 24.5232C211.935 24.5232 217.035 19.5232 217.035 17.7232C217.035 15.6232 215.635 16.4232 211.935 20.5232ZM163.035 21.0232C147.035 25.5232 137.935 37.4232 137.235 54.7232C136.935 62.3232 137.135 64.1232 139.335 68.8232C142.535 75.8232 147.935 81.8232 154.135 85.2232C156.835 86.6232 158.835 88.0232 158.635 88.2232C157.735 89.1232 149.335 84.7232 145.535 81.4232L141.635 78.0232L143.635 81.3232C149.935 92.3232 168.135 99.6232 181.835 96.6232C193.635 94.1232 202.635 87.5232 208.135 77.3232C211.235 71.5232 211.535 70.3232 211.535 62.0232C211.535 56.2232 211.036 52.3232 210.236 51.0232C209.036 49.1232 208.935 49.2232 209.535 51.8232C209.835 53.4232 209.635 57.4232 209.035 60.7232C207.235 70.7232 201.736 79.8232 194.736 84.7232L191.535 86.9232L193.635 84.4232C197.135 80.4232 197.435 79.1232 194.435 81.3232C192.835 82.5232 189.836 84.1232 187.736 85.0232L184.035 86.5232L182.035 83.3232C179.935 79.8232 179.535 76.8232 180.935 74.7232C181.535 73.7232 182.336 73.8232 184.736 75.1232C189.136 77.7232 190.736 76.5232 192.236 69.6232C192.836 66.2232 193.836 63.5232 194.236 63.5232C194.636 63.5232 195.035 64.1232 195.035 64.8232C195.035 65.5232 195.635 66.9232 196.335 67.9232C197.435 69.5232 197.835 69.5232 201.335 68.0232L205.035 66.5232L203.135 62.7232C202.035 60.6232 200.435 58.2232 199.535 57.5232C197.835 56.1232 196.935 54.2232 195.635 49.5232C195.135 47.7232 195.135 47.4232 195.935 48.5232C196.435 49.3232 197.235 49.6232 197.635 49.2232C198.035 48.8232 197.935 48.0232 197.335 47.4232C196.735 46.8232 196.436 45.6232 196.736 44.9232C197.436 43.1232 195.635 43.1232 192.135 45.0232C188.935 46.6232 187.435 49.3232 189.335 50.1232C190.935 50.7232 190.035 60.9232 188.135 64.4232C186.835 66.7232 186.835 66.7232 183.535 61.7232C181.635 59.0232 179.235 56.5232 178.135 56.2232C176.235 55.7232 176.235 55.9232 178.635 59.0232C181.635 62.9232 181.935 67.9232 179.735 74.3232C178.335 78.3232 178.335 79.0232 180.035 82.8232L181.935 87.0232L178.735 87.8232C175.435 88.7232 167.435 88.2232 166.335 87.1232C166.035 86.8232 166.235 85.3232 166.935 83.8232C167.935 81.7232 167.835 81.0232 166.835 80.4232C165.935 79.8232 166.535 79.5232 168.535 79.5232C170.235 79.5232 171.035 79.1232 170.435 78.7232C169.835 78.3232 169.435 74.8232 169.435 71.0232C169.435 63.9232 167.835 59.3232 164.535 56.5232C160.835 53.4232 154.935 60.4232 154.635 68.5232C154.535 70.4232 153.935 72.9232 153.335 73.9232C152.335 75.8232 152.135 75.7232 150.235 72.5232C146.835 67.1232 145.635 56.8232 147.335 49.8232C148.235 46.6232 148.735 43.8232 148.535 43.7232C148.335 43.5232 147.235 45.0232 146.135 47.2232C143.335 52.6232 143.535 48.7232 146.435 42.1232C149.335 35.5232 155.735 29.0232 161.935 26.2232C168.735 23.2232 179.035 22.8232 186.535 25.4232C191.135 26.9232 192.035 27.0232 190.535 25.8232C183.635 20.5232 172.135 18.5232 163.035 21.0232ZM164.435 73.1232C165.435 75.8232 165.135 76.7232 163.035 76.0232C161.535 75.5232 161.035 75.8232 161.035 77.4232C161.035 78.5232 161.535 79.7232 162.135 80.1232C164.235 81.3232 161.435 82.8232 159.135 81.6232C156.635 80.2232 156.535 79.6232 158.735 75.0232C160.535 71.3232 163.335 70.3232 164.435 73.1232ZM129.035 21.1232C129.035 23.2232 131.435 25.5232 133.735 25.5232H136.435L133.035 23.0232C129.435 20.4232 129.035 20.2232 129.035 21.1232ZM194.035 24.4232C194.035 25.5232 196.635 26.6232 197.435 25.8232C198.635 24.6232 197.935 23.5232 196.035 23.5232C194.935 23.5232 194.035 23.9232 194.035 24.4232ZM201.935 27.1232C200.235 29.2232 201.935 32.0232 205.135 32.0232C206.935 32.0232 207.635 31.4232 207.835 29.6232C208.435 25.8232 204.435 24.1232 201.935 27.1232Z" fill="black"/>
<path d="M167.035 31.4232C166.235 32.0232 164.435 32.1232 162.935 31.8232C160.835 31.4232 159.535 31.9232 157.635 33.8232C154.635 36.8232 154.435 38.6232 156.535 44.5232C157.935 48.5232 157.935 48.7232 156.035 49.2232C153.335 49.9232 153.535 51.3232 156.535 52.7232C159.835 54.2232 163.035 51.5232 163.035 47.2232C163.035 44.3232 163.035 44.2232 165.035 46.0232C167.235 48.0232 167.635 51.0232 166.035 52.0232C165.335 52.4232 166.435 54.4232 168.635 56.8232C173.235 62.0232 173.935 62.3232 176.935 61.6232L179.335 61.0232L176.635 57.7232C173.335 53.8232 173.535 51.1232 177.235 50.7232C179.435 50.4232 180.135 49.7232 180.635 46.9232C180.935 45.0232 181.035 42.1232 180.735 40.5232C180.335 38.8232 180.535 37.5232 181.235 37.3232C182.035 37.0232 182.035 36.3232 181.235 34.8232C179.335 31.3232 170.535 29.2232 167.035 31.4232ZM0.335498 33.1232C0.735498 33.5232 2.03549 34.3232 3.23549 34.9232C5.53549 36.1232 5.5355 36.2232 5.8355 62.0232C5.9355 76.3232 5.83549 89.0233 5.53549 90.2233C5.23549 91.5233 3.93549 92.7232 2.53549 93.1232C-2.26451 94.3232 0.0354948 95.5232 7.03549 95.5232C11.0355 95.5232 14.0355 95.1232 14.0355 94.5232C14.0355 93.9232 13.4355 93.5232 12.7355 93.5232C11.9355 93.5232 10.6355 92.7233 9.73549 91.7233C8.23549 90.1233 8.03549 86.7232 8.03549 64.7232C8.03549 50.8232 8.3355 39.5232 8.8355 39.5232C9.2355 39.5232 19.4355 52.1232 31.4355 67.5232C43.4355 82.9232 53.6355 95.5232 54.1355 95.5232C54.6355 95.5232 55.1355 88.7232 55.1355 80.2232C55.2355 71.9232 55.5355 58.5232 55.9355 50.5232L56.5355 36.0232L59.5355 34.5232L62.5355 33.0232L58.2355 32.7232C55.9355 32.5232 52.3355 32.5232 50.2355 32.7232L46.5355 33.1232L49.3355 34.3232C50.8355 34.9232 52.3355 36.0232 52.5355 36.8232C52.8355 37.5232 52.9355 47.9232 52.8355 60.0232L52.5355 82.0232L33.7355 57.2232L14.9355 32.5232H7.3355C3.1355 32.5232 0.0354976 32.8232 0.335498 33.1232ZM89.3355 34.3232C90.3355 35.3232 91.0355 37.1232 91.0355 38.2232C91.0355 39.9232 75.1355 79.2232 70.4355 89.1232C69.5355 90.9232 68.0355 92.7232 66.9355 93.0232C62.7355 94.4232 65.4355 95.5232 72.7355 95.5232C77.3355 95.5232 80.0355 95.1233 79.5355 94.6233C78.9355 94.1233 77.6355 93.5232 76.6355 93.3232C73.2355 92.7232 72.6355 90.2232 74.5355 85.1232C77.4355 77.5232 77.4355 77.5232 92.5355 77.5232C99.8355 77.5232 106.535 77.8232 107.335 78.1232C108.135 78.4232 109.835 81.3232 111.035 84.6232C113.435 91.0232 112.835 93.5232 108.935 93.5232C107.835 93.5232 107.035 93.9232 107.035 94.5232C107.035 95.1232 111.035 95.5232 117.035 95.5232C122.535 95.5232 127.035 95.3232 127.035 95.0232C127.035 94.7232 125.935 93.4233 124.535 92.2233C122.935 90.8233 118.435 81.1232 111.635 65.0232C96.9355 29.5232 98.6355 32.5232 92.7355 32.5232C87.9355 32.5232 87.8355 32.6232 89.3355 34.3232ZM100.035 58.2232C103.635 66.8232 106.735 74.2232 106.835 74.6232C107.035 75.1232 100.835 75.5232 93.0355 75.5232C79.9355 75.5232 78.8355 75.4232 79.4355 73.7232C82.4355 65.8232 92.4355 42.5232 92.9355 42.5232C93.2355 42.5232 96.4355 49.6232 100.035 58.2232ZM190.236 34.2232C190.736 36.8232 194.035 37.1232 194.035 34.6232C194.035 33.1232 193.435 32.5232 191.935 32.5232C190.535 32.5232 190.036 33.0232 190.236 34.2232ZM229.035 33.0232C229.035 33.3232 230.635 34.1232 232.535 34.9232C234.435 35.7232 236.035 36.8232 236.035 37.2232C236.035 37.6232 234.935 49.9232 233.635 64.4232C231.535 86.9232 230.935 91.1233 229.435 92.2233C228.435 92.9233 227.035 93.5232 226.335 93.5232C225.635 93.5232 225.035 93.9232 225.035 94.5232C225.035 95.1232 228.335 95.5232 233.035 95.5232C237.435 95.5232 241.035 95.3232 241.035 95.0232C241.035 94.7232 239.435 93.9232 237.535 93.1232C234.535 91.8232 234.035 91.1232 234.035 88.3232C234.035 81.5232 237.435 43.5232 238.035 43.5232C238.435 43.5232 242.835 54.2232 247.935 67.2232C257.835 92.8232 258.335 94.0233 259.635 93.2233C260.135 92.9233 265.235 81.4232 271.035 67.6232C276.735 53.8232 281.735 42.9232 282.135 43.3232C282.735 44.0232 286.035 82.0232 286.035 88.3232C286.035 91.1232 285.535 91.8232 282.535 93.1232C280.635 93.9232 279.035 94.7232 279.035 95.0232C279.035 95.3232 284.035 95.5232 290.035 95.5232C300.335 95.5232 304.035 94.5232 298.635 93.1232C297.335 92.8232 295.935 91.7232 295.535 90.8232C294.735 88.5232 291.035 48.8232 291.035 41.2232C291.035 35.9232 291.235 35.4232 293.835 34.2232C296.335 33.1232 296.135 33.0232 290.035 32.7232C285.435 32.5232 283.336 32.8232 282.736 33.7232C282.236 34.4232 277.735 45.1232 272.535 57.5232C267.435 69.9232 262.935 80.0232 262.435 80.0232C262.035 80.0232 257.335 69.3232 252.135 56.2232L242.635 32.5232H235.835C232.135 32.5232 229.035 32.7232 229.035 33.0232ZM306.035 33.3232C306.035 33.7232 307.035 34.5232 308.335 35.0232C309.735 35.7232 313.736 41.8232 319.736 53.0232L329.035 70.0232V91.7233L326.035 92.8232C324.435 93.4232 323.035 94.3233 323.035 94.7233C323.035 95.1233 327.735 95.5232 333.535 95.5232C339.335 95.5232 344.035 95.3232 344.035 95.0232C344.035 94.8232 342.735 93.9232 341.035 93.0232L338.035 91.4232V69.4232L346.635 53.4232C352.135 43.3232 356.335 36.6232 358.335 35.0232L361.535 32.5232H353.635C348.835 32.5232 346.035 32.9232 346.635 33.4232C347.135 33.9232 348.435 34.5232 349.535 34.7232C350.635 34.9232 351.635 35.8232 351.835 36.8232C352.135 38.3232 339.335 63.5232 337.035 65.8232C336.035 67.0232 321.635 40.7232 321.535 37.5232C321.535 35.8232 322.135 34.9232 323.535 34.7232C324.635 34.5232 325.935 33.9232 326.535 33.4232C327.035 32.9232 323.136 32.5232 316.736 32.5232C310.836 32.5232 306.035 32.8232 306.035 33.3232ZM199.635 39.2232C199.035 40.6232 199.135 40.7232 200.135 39.8232C200.835 39.1232 201.135 38.3232 200.835 38.0232C200.535 37.7232 199.935 38.2232 199.635 39.2232ZM207.035 38.9232C207.035 40.4232 209.435 41.7232 210.435 40.8232C211.735 39.4232 210.935 37.5232 209.035 37.5232C207.935 37.5232 207.035 38.1232 207.035 38.9232ZM200.035 41.5232C199.135 42.1232 199.036 42.5232 199.736 42.5232C200.336 42.5232 201.235 42.0232 201.535 41.5232C202.335 40.3232 201.935 40.3232 200.035 41.5232ZM134.835 88.6232C133.835 89.1232 133.035 90.7232 133.035 92.0232C133.035 94.3232 133.035 94.3232 136.035 91.3232C137.735 89.7232 139.035 88.2232 139.035 87.9232C139.035 87.2232 136.535 87.5232 134.835 88.6232ZM211.835 96.6233C214.235 97.7233 216.435 98.4233 216.835 98.1233C217.935 96.9233 215.335 95.4232 211.435 95.0232L207.535 94.5232L211.835 96.6233ZM144.835 96.6233C143.835 97.1233 143.035 98.7233 143.035 100.123C143.035 102.223 143.235 102.423 144.335 101.323C146.235 99.4232 148.235 95.5232 147.335 95.5232C146.935 95.5232 145.735 96.0233 144.835 96.6233ZM149.635 101.923C148.035 104.423 148.035 104.523 149.935 104.523C152.035 104.523 153.635 101.723 152.235 100.323C151.735 99.8232 150.635 100.523 149.635 101.923ZM197.435 101.323C198.135 102.423 204.235 104.523 206.835 104.523C209.235 104.523 208.035 102.723 205.135 102.223C203.535 101.923 201.035 101.323 199.535 100.923C197.635 100.423 196.935 100.623 197.435 101.323ZM157.335 103.123C157.735 104.223 158.235 106.223 158.635 107.823C159.135 109.923 159.535 110.323 160.535 109.523C161.635 108.623 161.635 107.823 160.535 105.223C159.135 101.823 156.435 100.023 157.335 103.123ZM191.035 104.523C191.035 106.123 193.336 110.523 194.236 110.523C195.336 110.523 195.235 107.823 194.035 105.423C192.935 103.423 191.035 102.823 191.035 104.523ZM164.435 108.023C163.535 112.923 164.735 113.623 166.535 109.223C168.435 104.723 168.435 104.523 166.535 104.523C165.735 104.523 164.835 105.923 164.435 108.023ZM172.035 111.223C172.135 116.123 172.335 116.723 173.335 115.423C174.735 113.523 174.435 105.523 172.935 105.523C172.435 105.523 172.035 108.123 172.035 111.223ZM178.435 109.023C178.435 111.323 178.835 112.123 179.735 111.823C180.435 111.523 181.035 110.323 181.035 109.023C181.035 107.723 180.435 106.523 179.735 106.223C178.835 105.923 178.435 106.723 178.435 109.023ZM186.635 108.223C185.435 109.423 186.035 111.523 187.535 111.523C188.335 111.523 189.035 110.923 189.035 110.123C189.035 108.423 187.635 107.323 186.635 108.223Z" fill="black"/>
</svg>
